<?xml version="1.0" standalone="no"?>
<!DOCTYPE svg PUBLIC "-//W3C//DTD SVG 20010904//EN"
 "http://www.w3.org/TR/2001/REC-SVG-20010904/DTD/svg10.dtd">
<svg version="1.0" xmlns="http://www.w3.org/2000/svg"
 width="512.000000pt" height="512.000000pt" viewBox="0 0 512.000000 512.000000"
 preserveAspectRatio="xMidYMid meet">
<metadata>
Created by potrace 1.11, written by Peter Selinger 2001-2013
</metadata>
<g transform="translate(0.000000,512.000000) scale(0.100000,-0.100000)"
fill="#000000" stroke="none">
<path d="M2160 3535 c-264 -53 -492 -239 -595 -484 l-31 -74 -61 -17 c-447
-122 -547 -710 -165 -964 131 -87 127 -86 657 -86 l467 0 29 29 c41 41 41 98
0 143 l-29 33 -459 5 -458 5 -51 27 c-67 35 -138 115 -159 179 -22 64 -22 154
0 218 21 64 92 144 159 179 44 23 63 27 141 27 85 0 94 -2 158 -37 86 -48 118
-49 163 -4 28 28 34 42 34 76 0 35 -6 48 -33 74 -19 18 -64 45 -100 61 -37 17
-67 34 -67 39 -1 26 73 131 139 196 120 118 247 171 416 171 135 0 251 -37
354 -112 l43 -30 -59 -41 c-104 -72 -153 -129 -153 -178 0 -60 72 -119 128
-105 14 3 50 29 81 56 109 97 254 143 385 121 265 -44 439 -295 385 -554 -19
-89 -57 -157 -138 -241 -71 -75 -76 -82 -76 -124 0 -38 5 -49 33 -74 66 -60
146 -28 250 101 275 341 166 849 -223 1041 -105 51 -180 69 -290 69 l-90 0
-62 59 c-195 185 -469 267 -723 216z"/>
<path d="M4214 3542 c-6 -4 -113 -141 -238 -304 -124 -163 -232 -298 -238
-300 -9 -3 -5 -29 15 -94 15 -49 30 -104 33 -121 6 -29 10 -33 38 -33 41 0 44
3 246 270 89 118 171 224 181 235 19 19 19 7 19 -565 0 -323 -4 -580 -9 -575
-4 6 -95 124 -201 263 l-192 252 -39 0 -39 0 -1 -57 c0 -32 -8 -88 -18 -125
l-17 -67 229 -301 229 -300 149 0 149 0 -2 913 -3 912 -140 2 c-77 2 -145 0
-151 -5z"/>
<path d="M470 2575 l0 -245 120 0 120 0 0 60 0 60 125 0 124 0 6 38 c7 40 40
167 50 195 7 16 -4 17 -149 17 l-156 0 0 60 0 60 -120 0 -120 0 0 -245z"/>
<path d="M2911 2533 c-42 -39 -301 -531 -301 -571 0 -43 31 -62 102 -62 32 0
58 -3 58 -7 0 -5 -47 -122 -105 -262 -58 -140 -105 -260 -105 -268 0 -8 6 -13
13 -11 22 7 576 692 577 713 0 42 -16 50 -106 55 l-86 5 151 185 c83 101 151
190 151 198 0 7 -5 22 -10 33 -10 17 -23 19 -160 19 -149 0 -150 0 -179 -27z"/>
</g>
</svg>
