<svg id="Layer_1" data-name="Layer 1" xmlns="http://www.w3.org/2000/svg" viewBox="0 0 61.5 58.74"><defs><style>.cls-1{fill:#fff;}</style></defs><title>clear-night-icon</title><path class="cls-1" d="M22.05,50.29A23.47,23.47,0,0,0,48.31,13.83a23.47,23.47,0,1,1-27.47,36C21.24,50,21.64,50.15,22.05,50.29Z" transform="translate(-2.5 -0.33)"/><path class="cls-1" d="M54,11.63l-1,2.13.79.61,1.44-2,4.38,6.12-3.11-6.85L64,10.9l-7.49-.73,3.11-6.85L55.25,9.44,50.88,3.33,54,10.17l-6.3.61.71.3Z" transform="translate(-2.5 -0.33)"/><path class="cls-1" d="M15.51,46.17l.46-1q-.29-.67-.54-1.37l-1.19,1.66L9.88,39.33,13,46.17,5.5,46.9l7.49.73L9.88,54.48l4.38-6.12,4.38,6.12-3.11-6.85,1.61-.16c-.22-.4-.44-.8-.64-1.21Z" transform="translate(-2.5 -0.33)"/><polygon class="cls-1" points="8.75 6.12 13.13 0 10.01 6.85 17.5 7.58 10.01 8.31 13.13 15.15 8.75 9.04 4.38 15.15 7.49 8.31 0 7.58 7.49 6.85 4.38 0 8.75 6.12"/></svg>