<svg id="Layer_1" data-name="Layer 1" xmlns="http://www.w3.org/2000/svg" width="54.2" height="58.48" viewBox="0 0 54.2 58.48"><defs><style>.cls-1{fill:#fff;}</style></defs><title>clear-night-icon</title><path class="cls-1" d="M26.26,43.16A17.46,17.46,0,0,0,45.79,16,17.46,17.46,0,1,1,25.36,42.82Z" transform="translate(-2.5)"/><polygon class="cls-1" points="39.63 4.64 42.94 0 40.59 5.19 46.26 5.74 40.59 6.29 42.94 11.48 39.63 6.84 36.31 11.48 38.67 6.29 33 5.74 38.67 5.19 36.31 0 39.63 4.64"/><polygon class="cls-1" points="19.63 51.64 22.94 47 20.59 52.19 26.26 52.74 20.59 53.29 22.94 58.48 19.63 53.84 16.31 58.48 18.67 53.29 13 52.74 18.67 52.19 16.31 47 19.63 51.64"/><polygon class="cls-1" points="6.63 26.64 9.94 22 7.58 27.19 13.26 27.74 7.58 28.29 9.94 33.48 6.63 28.84 3.31 33.48 5.67 28.29 0 27.74 5.67 27.19 3.31 22 6.63 26.64"/></svg>