<?xml version="1.0" encoding="utf-8"?>
<!-- Generator: Adobe Illustrator 19.2.1, SVG Export Plug-In . SVG Version: 6.00 Build 0)  -->
<!DOCTYPE svg PUBLIC "-//W3C//DTD SVG 1.1//EN" "http://www.w3.org/Graphics/SVG/1.1/DTD/svg11.dtd">
<svg version="1.1" id="Layer_1" xmlns="http://www.w3.org/2000/svg" xmlns:xlink="http://www.w3.org/1999/xlink" x="0px" y="0px"
	 width="32px" height="32px" viewBox="0 0 32 32" style="enable-background:new 0 0 32 32;" xml:space="preserve">
<style type="text/css">
	.st0{fill:#FFFFFF;}
</style>
<path class="st0" d="M11.1,16C7.8,12.5,4.5,9.2,1.2,5.8c-1.4-1.4-1.4-1.6,0-3C1.8,2.2,2.4,1.6,3,0.9c0.9-1.1,1.8-1,2.7,0
	c3.3,3.4,6.5,6.9,9.9,10.3c0.6-0.6,1-0.9,1.4-1.2c3-3,6.1-6,9.1-9.1c1-1,1.8-1.3,2.9-0.1c0.6,0.7,1.3,1.4,2,2c1.1,1,1,1.8,0,2.7
	c-3,3-6.1,6-9.1,8.9c-0.4,0.4-0.9,0.6-1.6,1.1c2.6,2.5,4.8,4.7,7,6.9c1.3,1.3,2.6,2.6,3.8,3.8c0.8,0.8,0.8,1.5,0,2.2
	c-0.7,0.6-1.4,1.4-2,2c-1.5,1.5-1.7,1.5-3.2,0.1c-3-3-5.8-5.8-8.8-8.8c-0.4-0.4-0.8-0.7-1.4-1.4c-1.1,1.1-2.1,2.3-3.2,3.4
	c-2.4,2.4-4.8,4.7-7.1,7.2c-0.8,0.9-1.5,1-2.4,0c-0.7-0.8-1.4-1.5-2.2-2.2c-1.1-1-1-1.8,0-2.7c3-3,6-6,9-9
	C10.4,16.8,10.8,16.4,11.1,16z"/>
</svg>
