<svg xmlns="http://www.w3.org/2000/svg" width="59.28" height="36.86" viewBox="0 0 59.28 36.86"><defs><style>.cls-1{isolation:isolate;}.cls-2{fill:#fff;mix-blend-mode:multiply;}</style></defs><title>cloud-cover-icon</title><g class="cls-1"><g id="Layer_2" data-name="Layer 2"><path class="cls-2" d="M57.28,13.38A15.19,15.19,0,0,0,46.52,8.92a15.57,15.57,0,0,0-2,.13,18.42,18.42,0,0,0-31.65,6.38,12,12,0,0,0,1.56,23.93h32A15.23,15.23,0,0,0,57.28,13.38Zm-3.4,18.13a10.37,10.37,0,0,1-7.37,3.05h-32a7.21,7.21,0,0,1,0-14.42h0.47a7.66,7.66,0,0,1,1.25.18,7.28,7.28,0,0,1,1.33.46h0a6.76,6.76,0,0,1,1.2.71,2.4,2.4,0,0,0,2.83-3.89,12.23,12.23,0,0,0-2-1.18h0a12.43,12.43,0,0,0-1.66-.62A13.6,13.6,0,0,1,30.5,7.32a13.47,13.47,0,0,1,6.34,1.57,13.33,13.33,0,0,1,2.59,1.78,15.13,15.13,0,0,0-1.93,1.21L37.39,12l0.12-.09a15.6,15.6,0,0,0-2.19,2,2.41,2.41,0,0,0,3.55,3.25,9.94,9.94,0,0,1,1.5-1.34h0a10.27,10.27,0,0,1,1.75-1,10.49,10.49,0,0,1,2-.7h0A10.41,10.41,0,0,1,53.88,31.51Z" transform="translate(-2.45 -2.51)"/></g></g></svg>