<svg version="1.1" xmlns="http://www.w3.org/2000/svg" xmlns:xlink="http://www.w3.org/1999/xlink" x="0px" y="0px"
	 width="65.6px" height="45.8px" viewBox="0 0 65.6 45.8" enable-background="new 0 0 65.6 45.8" xml:space="preserve">
<path id="_x30_4" fill="#FFFFFF" d="M48.2,38c4.8,0,8.7-3.9,8.7-8.7c0,0,0-8.7-9.1-8.7c-2-8.1-9.6-8.5-11.7-7.9c-2.3-2.3-6.1-4-10-4
	c-7.7,0-14,6-14.6,13.5c-2.5,1.5-4.2,4.2-4.2,7.3c0,4.7,3.8,8.4,8.4,8.4H48.2z M16.4,34.8c-3.1,0-5.5-2.3-5.5-5.2
	c0-2.4,1.5-4.5,3.9-5.2c0.3-11.4,10.3-12,11.4-12c3.3,0,6.6,1.6,8.7,4c4.3-1.4,10.1,1.9,9.4,8.2C46,24,47.7,24,48.2,24
	c2.4,0,5.3,2.1,5.3,5.5c0,2.9-2.4,5.3-5.3,5.3H16.4z"/>
</svg>
