<svg version="1.1" class="co-logo-icon" xmlns="http://www.w3.org/2000/svg" xmlns:xlink="http://www.w3.org/1999/xlink" x="0px" y="0px"
	 viewBox="0 0 121.3 113" style="enable-background:new 0 0 121.3 113;" xml:space="preserve">
<style type="text/css">
	.st0{fill:#FFFFFF;}
</style>
<title>The Conditional Orchestra</title>
<g>
	<path class="st0" d="M118,27.3h-7.9c-0.2,0-0.4,0.1-0.5,0.3L96.8,44.2c-0.1,0.2-0.3,0.3-0.6,0.3h-0.1c0.8,2.2,1.3,4.5,1.5,6.9h1.9
		c0.3,0,0.5-0.1,0.6-0.3l11-14.3l0.3-0.3v33.4l-0.2-0.3c-3.7-4.8-7.3-9.5-11-14.3c-0.2-0.2-0.4-0.4-0.7-0.4h-1.7
		c0,0.8,0,1.6-0.1,2.4c-0.1,1.7-0.4,3.4-0.8,5l12.7,16.4c0.1,0.2,0.3,0.3,0.5,0.2h8.2V27.3H118z"/>
	<path class="st0" d="M18.8,51.9c0-0.2,0-0.4,0.1-0.5l-9,0V48H3v13.7h6.9v-3.4H17c0.3-1.2,0.6-2.4,1-3.5c0.2-0.5,0.4-1,0.6-1.5
		c0,0,0-0.1,0-0.1c0,0,0,0.1,0,0.1c0.3-0.6,0.6-1.2,0.8-1.9h-0.6C18.9,51.6,18.8,51.8,18.8,51.9z"/>
	<path class="st0" d="M76.1,35.2c-0.9,0-1.7,0.1-2.6,0.2c-8.3-9.9-23-11.1-32.9-2.8c-3.4,2.9-5.9,6.6-7.2,10.9
		c-8.3,1.1-14.2,8.8-13.1,17.1c1,7.6,7.5,13.3,15.1,13.3h22.3c1.7,0,3-1.4,3-3s-1.4-3-3-3H35.4c-5.1,0-9.1-4.1-9.1-9.1
		s4.1-9.1,9.1-9.1h0.3h0.1c0.6,0,1.2,0.1,1.8,0.2c0.6,0.1,1.1,0.3,1.7,0.6c0.5,0.2,1,0.5,1.5,0.9c1.4,1,3.3,0.7,4.3-0.7
		c1-1.4,0.7-3.3-0.7-4.3c-0.8-0.6-1.6-1.1-2.5-1.5c-0.7-0.3-1.4-0.6-2.1-0.8c2.6-6.5,9-10.8,16-10.8c2.8,0,5.5,0.7,8,2
		c1.2,0.6,2.3,1.4,3.3,2.3c-2,1-3.7,2.4-5.2,4c-1.1,1.2-1.1,3.2,0.2,4.3s3.2,1.1,4.3-0.2c1.2-1.3,2.6-2.3,4.1-3
		c0.8-0.4,1.7-0.7,2.6-0.9c7.1-1.7,14.2,2.7,15.9,9.8c0.2,1,0.4,2,0.4,3.1c0,0.2,0,0.5,0,0.7c0,0.2,0,0.5,0,0.7c0,0.2,0,0.4-0.1,0.7
		c0,0.2-0.2,0.4-0.2,0.6c0,0.2-0.1,0.4-0.2,0.6c-0.1,0.2-0.1,0.4-0.2,0.6c-0.1,0.2-0.1,0.4-0.2,0.6c-0.1,0.2-0.2,0.4-0.2,0.6
		c-0.1,0.2-0.2,0.4-0.3,0.6c-0.1,0.2-0.2,0.4-0.3,0.6c-0.1,0.2-0.2,0.4-0.3,0.6L87,61.9c-0.1,0.2-0.2,0.3-0.4,0.5l-0.4,0.5
		c-0.1,0.2-0.3,0.3-0.4,0.5l-0.4,0.5c-0.1,0.2-0.3,0.3-0.5,0.4l-0.5,0.4L84,65.1c-1.4,1-1.6,2.9-0.6,4.3c1,1.4,2.9,1.6,4.3,0.6
		l0.7-0.6l0.7-0.6c0.2-0.2,0.5-0.4,0.7-0.6c0.2-0.2,0.4-0.4,0.6-0.7c0.2-0.2,0.4-0.5,0.6-0.7c0.2-0.2,0.4-0.5,0.6-0.7
		s0.4-0.5,0.5-0.8c0.2-0.3,0.3-0.5,0.5-0.8c0.2-0.3,0.3-0.5,0.5-0.8c0.1-0.3,0.3-0.6,0.4-0.8c0.1-0.3,0.3-0.6,0.4-0.9
		s0.2-0.6,0.3-0.9c0.1-0.3,0.2-0.6,0.3-0.9c0.1-0.3,0.2-0.6,0.2-0.9c0.1-0.3,0.2-0.6,0.2-0.9s0.1-0.6,0.2-0.9s0.1-0.6,0.1-1
		c0-0.4,0.1-0.7,0.1-1c0-0.3,0-0.7,0-1l0,0C95.4,43.9,86.8,35.3,76.1,35.2z"/>
	<path class="st0" d="M81.2,55.1h-6.4c-1.3,0-2.4,0.7-3,1.8l-7.6,14.2c-0.5,0.9-0.2,2,0.7,2.5c0.3,0.1,0.6,0.2,0.9,0.2h3.1
		l-6.2,15.1c-0.1,0.2,0,0.5,0.2,0.6c0.2,0.1,0.4,0,0.6-0.1l15.8-19.3c0.5-0.6,0.4-1.5-0.2-2c-0.3-0.2-0.6-0.3-0.9-0.3h-4.2l8.4-10.2
		c0.5-0.6,0.4-1.5-0.2-2C81.9,55.2,81.5,55.1,81.2,55.1z"/>
</g>
</svg>
