<svg xmlns="http://www.w3.org/2000/svg" width="121.26" height="69.29" viewBox="0 0 121.26 69.29"><defs><style>.cls-1{isolation:isolate;}.cls-2{fill:#fff;}.cls-3{mix-blend-mode:multiply;}</style></defs><title>co-logo-icon</title><g class="cls-1"><g id="Layer_1" data-name="Layer 1"><path d="M118,3.29h-7.88a.6.6,0,0,0-.54.26L96.81,20.23a.63.63,0,0,1-.56.29h-.09a32.07,32.07,0,0,1,1.54,6.89h1.88a.73.73,0,0,0,.65-.33l11-14.33.26-.33V45.8l-.25-.29q-5.51-7.16-11-14.33a.79.79,0,0,0-.71-.35H97.87c0,.81,0,1.62-.08,2.43a28.11,28.11,0,0,1-.81,5L109.63,54.7a.57.57,0,0,0,.51.25h8.24V3.29Z"/><path d="M9.86,27.38V24H3V37.71H9.89V34.28H17c.35-1.22.62-2.39,1-3.52.18-.5.39-1,.61-1.48s.15-1.27.25-1.89Z"/><path class="cls-2" d="M18.88,27.38q-.15.94-.25,1.89c.28-.62.56-1.25.85-1.89Z"/><path class="cls-3" d="M95.34,30.54A19.26,19.26,0,0,0,73.56,11.4a23.35,23.35,0,0,0-40.14,8.09,15.24,15.24,0,0,0,2,30.35H57.7a3,3,0,0,0,0-6.1H35.4a9.14,9.14,0,0,1,0-18.29l.32,0h.1a9.58,9.58,0,0,1,1.75.24,8.86,8.86,0,0,1,1.69.59,8.67,8.67,0,0,1,1.52.89,3,3,0,1,0,3.59-4.93,15.48,15.48,0,0,0-2.54-1.49,15.22,15.22,0,0,0-2.1-.79,17.25,17.25,0,0,1,16-10.78,17.13,17.13,0,0,1,8,2,17,17,0,0,1,3.29,2.26,19.36,19.36,0,0,0-5.22,4,3,3,0,1,0,4.48,4.12h0a13.21,13.21,0,0,1,4.13-3A13.62,13.62,0,0,1,73,17.69h0A13.2,13.2,0,0,1,89.25,30.54h0c0,.23,0,.46,0,.68s0,.45,0,.67-.05.44-.08.67S89,33,89,33.2s-.09.42-.15.64-.11.41-.17.61-.14.42-.21.61-.15.41-.24.61-.17.39-.26.58-.19.39-.3.57-.21.38-.32.56l-.33.53h0c-.12.18-.24.35-.37.52l-.39.5c-.13.17-.27.32-.41.47h0l-.43.45c-.15.15-.31.3-.46.44l-.48.42-.5.39A3,3,0,1,0,87.59,46l.73-.57.69-.6c.23-.21.45-.42.67-.64s.43-.44.64-.67.42-.47.61-.7.39-.48.57-.72.37-.5.54-.76.34-.52.51-.79.32-.54.46-.8.29-.55.43-.83.27-.57.39-.87.24-.57.34-.88.21-.59.31-.9.18-.6.25-.9.15-.62.22-.94.12-.62.17-.94.1-.64.13-1,.06-.66.08-1,0-.65,0-1h0Z"/><path class="cls-3" d="M81.21,31.12H74.82a3.41,3.41,0,0,0-3,1.8L64.21,47.16a1.82,1.82,0,0,0,1.61,2.69H68.9L62.65,64.91a.45.45,0,0,0,.77.46L79.25,46.08a1.44,1.44,0,0,0-1.11-2.36H73.92l8.41-10.25A1.44,1.44,0,0,0,81.21,31.12Z"/></g></g></svg>