<svg version="1.1" id="error-icon" xmlns="http://www.w3.org/2000/svg" xmlns:xlink="http://www.w3.org/1999/xlink" x="0px" y="0px"
	 width="69px" height="69px" viewBox="0 0 69 69" enable-background="new 0 0 69 69" xml:space="preserve">
   <path fill="#FFFFFF" d="M34.9,67C17.4,67,3.2,52.8,3.2,35.3c0-17.5,14.2-31.7,31.7-31.7s31.7,14.2,31.7,31.7
	C66.6,52.8,52.4,67,34.9,67z M34.9,9.6C20.7,9.6,9.2,21.2,9.2,35.3C9.2,49.5,20.7,61,34.9,61s25.7-11.5,25.7-25.7
	C60.6,21.2,49.1,9.6,34.9,9.6z"/>
  <path fill="#FFFFFF" d="M47.5,48.5h-3.8c0-2.2-3.6-4.7-8.8-4.7c-5.2,0-8.8,2.5-8.8,4.7h-3.8c0-4.8,5.5-8.5,12.6-8.5
	C42,40,47.5,43.7,47.5,48.5z"/>
  <g>
	   <path fill="#FFFFFF" d="M21.3,25.7l9-4.7c0,0,3,10.3-2.7,10.3S21.7,29,21.3,25.7z"/>
	    <path fill="#FFFFFF" d="M48.1,25.7l-9-4.7c0,0-3,10.3,2.7,10.3S47.8,29,48.1,25.7z"/>
  </g>
</svg>
