<?xml version="1.0" encoding="utf-8"?>
<!-- Generator: Adobe Illustrator 19.2.1, SVG Export Plug-In . SVG Version: 6.00 Build 0)  -->
<!DOCTYPE svg PUBLIC "-//W3C//DTD SVG 1.1//EN" "http://www.w3.org/Graphics/SVG/1.1/DTD/svg11.dtd">
<svg version="1.1" id="Layer_1" xmlns="http://www.w3.org/2000/svg" xmlns:xlink="http://www.w3.org/1999/xlink" x="0px" y="0px"
	 width="39.3px" height="42.7px" viewBox="0 0 39.3 42.7" enable-background="new 0 0 39.3 42.7" xml:space="preserve">
<path fill="#FFFFFF" d="M37,22.7c-0.5-0.9-1.6-1.3-2.5-0.9l-5.2,2.6l-5.8-3.3l5.8-3.3l5.2,2.6c0.9,0.5,2.1,0.1,2.5-0.9
	c0.5-0.9,0.1-2.1-0.9-2.5l-3-1.5l2.3-1.3c0.9-0.5,1.2-1.7,0.7-2.6c-0.5-0.9-1.7-1.2-2.6-0.7l-2.3,1.3l0.2-3.3c0.1-1-0.7-2-1.8-2
	c-1-0.1-2,0.7-2,1.8l-0.4,5.8l-5.8,3.3v-6.6L26.4,8c0.9-0.6,1.1-1.8,0.5-2.6c-0.6-0.9-1.8-1.1-2.6-0.5l-2.8,1.8V4
	c0-1.1-0.9-1.9-1.9-1.9c-1.1,0-1.9,0.9-1.9,1.9v2.6L15,4.8c-0.9-0.6-2.1-0.3-2.6,0.5C11.8,6.2,12,7.4,12.9,8l4.9,3.2l0,6.6L12,14.5
	l-0.4-5.8c-0.1-1-1-1.8-2-1.8c-1,0.1-1.8,1-1.8,2L8,12.2l-2.3-1.3c-0.9-0.5-2.1-0.2-2.6,0.7c-0.5,0.9-0.2,2.1,0.7,2.6l2.3,1.3
	l-3,1.5c-0.9,0.5-1.3,1.6-0.9,2.5c0.5,0.9,1.6,1.3,2.5,0.9l5.2-2.6l5.8,3.3l-5.8,3.3l-5.2-2.6c-0.9-0.5-2.1-0.1-2.5,0.9
	c-0.5,0.9-0.1,2.1,0.9,2.6v0l3,1.5l-2.3,1.3c-0.9,0.5-1.2,1.7-0.7,2.6c0.5,0.9,1.7,1.2,2.6,0.7L8,30l-0.2,3.3c-0.1,1,0.7,2,1.8,2
	c1,0.1,2-0.7,2-1.8l0.4-5.8l5.8-3.3v6.6l-4.9,3.2c-0.9,0.6-1.1,1.8-0.5,2.6c0.6,0.9,1.8,1.1,2.6,0.5l2.7-1.8v2.6
	c0,1.1,0.9,1.9,1.9,1.9c1.1,0,1.9-0.9,1.9-1.9v-2.6l2.8,1.8c0.9,0.6,2.1,0.3,2.6-0.5c0.6-0.9,0.3-2.1-0.5-2.6l-4.9-3.2v-6.6l5.8,3.3
	l0.4,5.8c0.1,1,1,1.8,2,1.8c1-0.1,1.8-1,1.8-2l0,0L31.3,30l2.3,1.3c0.9,0.5,2.1,0.2,2.6-0.7c0.5-0.9,0.2-2.1-0.7-2.6l-2.3-1.3l3-1.5
	C37.1,24.8,37.5,23.7,37,22.7z"/>
</svg>
