<svg version="1.1" xmlns="http://www.w3.org/2000/svg" xmlns:xlink="http://www.w3.org/1999/xlink" x="0px" y="0px"
	 viewBox="0 0 201 203" enable-background="new 0 0 201 203" xml:space="preserve">
	<path d="M0,125c9.4,9.4,18.8,18.8,28.2,28.2c9.6-9.6,18.9-19,28.1-28.2c6.4,6.5,12,12.3,17.8,18.2c-8.7,8.7-18.1,18-27.9,27.8
		C56,181,65.5,190.5,75,200c-24.9,0-49.8,0-75,0C0,175,0,150,0,125z"/>
	<path d="M125,200c9.4-9.4,18.8-18.8,28.2-28.1c-9.6-9.6-19-18.9-28.2-28.1c6.5-6.4,12.3-12,18.2-17.8c8.7,8.7,18,18.1,27.8,28
		c10-10,19.5-19.5,28.9-29c0,25,0,50,0,75C175,200,150,200,125,200z"/>
	<path d="M200,75c-9.4-9.4-18.8-18.8-28.1-28.2c-9.4,9.5-18.5,18.8-27.2,27.5c-6.6-6.5-12.3-12.2-18.1-18
		c8.5-8.5,17.8-17.7,27.5-27.4C144,18.9,134.5,9.5,125,0c25,0,50,0,75,0C200,25,200,50,200,75z"/>
	<path d="M75,0c-9.4,9.4-18.8,18.8-28.4,28.4c9.6,9.2,19,18.3,27.9,26.9c-6.6,6.7-12.3,12.4-18.1,18.2C47.9,64.9,38.7,55.6,29.1,46
		C19,56.1,9.5,65.5,0,75C0,50,0,25,0,0C25,0,50,0,75,0z"/>
</svg>
