<svg xmlns="http://www.w3.org/2000/svg" width="44.34" height="56.51" viewBox="0 0 44.34 56.51"><defs><style>.cls-1{isolation:isolate;}.cls-2{fill:#fff;mix-blend-mode:multiply;}</style></defs><title>humidity-icon</title><g class="cls-1"><g id="Layer_1" data-name="Layer 1"><path class="cls-2" d="M52.52,37.44A40.14,40.14,0,0,0,52.76,33a59,59,0,0,0-1-10.55A94.81,94.81,0,0,0,48.28,9.3c-1.15-3.38-2.06-5.52-2.09-5.57a3,3,0,0,0-3.8-1.58A96,96,0,0,0,28.86,9.1a68.1,68.1,0,0,0-10.72,8,32.61,32.61,0,0,0-8,11,21.86,21.86,0,0,0-1.68,8.4c0,0.06,0,.11,0,0.17a0.07,0.07,0,0,0,0,0v0h0s0,0,0,.05A22,22,0,0,0,50.67,44.9a27.65,27.65,0,0,0,1.84-7.43h0v0Zm-37-7.07a26.74,26.74,0,0,1,6.62-8.91A70.32,70.32,0,0,1,36.76,11.37c2-1.06,3.74-1.91,5.08-2.53,0.56,1.53,1.29,3.61,2,6a81.91,81.91,0,0,1,2.08,8.66A53,53,0,0,1,46.85,33a33,33,0,0,1-.18,3.56,1.68,1.68,0,0,1-.45.29,3.38,3.38,0,0,1-1.38.27,3.08,3.08,0,0,1-1.69-.44A1,1,0,0,1,43,36.51h0a2.94,2.94,0,0,0-5.87,0,1.52,1.52,0,0,1-.5.32,3.36,3.36,0,0,1-1.35.26,3.07,3.07,0,0,1-1.68-.44l-0.15-.13h0a2.94,2.94,0,0,0-5.87,0,1.52,1.52,0,0,1-.5.32,3.34,3.34,0,0,1-1.34.26A3.07,3.07,0,0,1,24,36.64a0.86,0.86,0,0,1-.15-0.13h0a2.94,2.94,0,0,0-5-1.9A3,3,0,0,0,18,36.5a1.5,1.5,0,0,1-.5.32,3.37,3.37,0,0,1-1.35.26,3.07,3.07,0,0,1-1.68-.44l-0.14-.12v0A15.89,15.89,0,0,1,15.57,30.36Z" transform="translate(-8.43 -1.95)"/></g></g></svg>