<svg xmlns="http://www.w3.org/2000/svg" width="54.74" height="56.13" viewBox="0 0 54.74 56.13"><defs><style>.cls-1{isolation:isolate;}.cls-2,.cls-3{mix-blend-mode:multiply;}.cls-3{fill:#fff;}</style></defs><title>storm-icon</title><g class="cls-1"><g id="Layer_1" data-name="Layer 1"><g class="cls-2"><polygon class="cls-3" points="21.19 12.15 21.19 12.15 21.19 12.15 21.19 12.15"/><path class="cls-3" d="M55.71,34.71c-0.09-.72-0.22-1.45-0.38-2.17s-0.36-1.44-.6-2.15a21,21,0,0,0-.82-2.11,20.56,20.56,0,0,0-1-2,22,22,0,0,0-1.25-1.93q-0.67-.93-1.41-1.77c-0.5-.56-1-1.09-1.56-1.59s-1.11-1-1.7-1.41a21.19,21.19,0,0,0-1.8-1.23c-0.62-.38-1.26-0.73-1.9-1s-1.32-.6-2-0.85-1.36-.47-2.05-0.66-1.4-.34-2.1-0.46-1.43-.2-2.15-0.26C34.41,15,33.88,15,33.36,15H32.76c-0.72,0-1.45.07-2.17,0.16-0.49.06-1,.14-1.45,0.24q0.62-.41,1.27-0.77c0.47-.25.95-0.48,1.44-0.69s1-.39,1.51-0.56a16.08,16.08,0,0,1,1.57-.4,16.45,16.45,0,0,1,5-.25c0.56,0.06,1.1.14,1.63,0.25s1.06,0.24,1.57.4,1,0.35,1.51.56a15,15,0,0,1,1.43.69A3,3,0,0,0,49,9.28c-0.64-.35-1.3-0.66-2-1s-1.37-.54-2.07-0.76A21.73,21.73,0,0,0,42.77,7C42,6.86,41.28,6.75,40.53,6.67S39,6.56,38.23,6.56s-1.54,0-2.29.11a22.29,22.29,0,0,0-4.4.9c-0.7.22-1.4,0.47-2.07,0.76s-1.33.6-2,1-1.25.72-1.85,1.13-1.18.83-1.73,1.3-1.09.94-1.59,1.45-1,1-1.45,1.6-0.89,1.13-1.3,1.73-0.77,1.22-1.12,1.85-0.67,1.3-1,2c-0.19.45-.36,0.91-0.52,1.37,0-.35,0-0.7,0-1.05,0-.15,0-0.28,0-0.42h0c0-.53.05-1.06,0.12-1.59s0.16-1.05.28-1.58a15,15,0,0,1,.44-1.56,14.43,14.43,0,0,1,.6-1.53A17,17,0,0,1,20.06,11a15.83,15.83,0,0,1,1-1.29,16.19,16.19,0,0,1,1.14-1.16,15.29,15.29,0,0,1,1.23-1c0.43-.32.87-0.62,1.32-0.9a3,3,0,1,0-3.18-5.18c-0.62.38-1.22,0.79-1.81,1.23s-1.15.91-1.69,1.41-1.06,1-1.56,1.59-1,1.15-1.41,1.76a22.8,22.8,0,0,0-2.3,4,21.41,21.41,0,0,0-.82,2.1c-0.23.71-.44,1.43-0.6,2.15h0A21.45,21.45,0,0,0,11,17.86,21.23,21.23,0,0,0,10.86,20h0c0,0.2,0,.4,0,0.59,0,0.53,0,1.06.06,1.58,0.06,0.72.14,1.44,0.26,2.15s0.27,1.41.46,2.1h0c0.19,0.69.41,1.38,0.66,2.05a21.42,21.42,0,0,0,.86,2c0.32,0.65.66,1.29,1,1.91s0.78,1.22,1.22,1.81c0.3,0.39.61,0.77,0.93,1.14-0.45-.22-0.88-0.46-1.3-0.72s-0.89-.58-1.32-0.89-0.83-.67-1.23-1a14.8,14.8,0,0,1-1.14-1.16,15.8,15.8,0,0,1-1.94-2.7,16.61,16.61,0,0,1-.77-1.5h0A14.4,14.4,0,0,1,8,25.81H8a14.87,14.87,0,0,1-.44-1.56c-0.12-.53-0.22-1.05-0.28-1.58s-0.1-1.06-.12-1.59a3,3,0,1,0-6.08.16,21.21,21.21,0,0,0,.16,2.18q0.14,1.09.38,2.17C1.83,26.31,2,27,2.27,27.73h0c0.24,0.71.51,1.41,0.83,2.11h0c0.32,0.69.67,1.38,1.05,2s0.81,1.32,1.25,1.93S6.31,35,6.8,35.58s1,1.09,1.56,1.59,1.11,1,1.69,1.41,1.19,0.85,1.81,1.23,1.26,0.73,1.91,1,1.31,0.6,2,.85,1.36,0.47,2.06.66,1.39,0.34,2.1.45,1.43,0.21,2.15.26c0.53,0,1.06.06,1.59,0.06h0.59A21.79,21.79,0,0,0,26.41,43c0.49-.06,1-0.14,1.45-0.23-0.42.27-.83,0.53-1.27,0.77s-0.94.48-1.44,0.69-1,.39-1.51.55a15.18,15.18,0,0,1-1.56.4c-0.54.11-1.09,0.19-1.63,0.25a17.21,17.21,0,0,1-3.37,0,16.11,16.11,0,0,1-1.63-.25,15.48,15.48,0,0,1-1.56-.4,15.87,15.87,0,0,1-1.52-.55c-0.49-.21-1-0.44-1.44-0.69A3,3,0,0,0,8,48.86a21.3,21.3,0,0,0,2,.95c0.67,0.29,1.37.54,2.07,0.76s1.43,0.4,2.16.55a22.37,22.37,0,0,0,2.24.34,22.46,22.46,0,0,0,4.59,0,22.46,22.46,0,0,0,2.24-.34c0.73-.15,1.45-0.34,2.16-0.55s1.4-.48,2.07-0.76,1.33-.6,2-0.95a21.57,21.57,0,0,0,1.86-1.13c0.6-.41,1.17-0.84,1.73-1.3s1.09-.95,1.59-1.45,1-1,1.45-1.6,0.89-1.14,1.3-1.73,0.78-1.22,1.13-1.86a21.54,21.54,0,0,0,.95-2c0.19-.45.36-0.91,0.52-1.37,0,0.35,0,.71,0,1.06,0,0.14,0,.28,0,0.43h0a15.23,15.23,0,0,1-.11,1.59c-0.07.53-.16,1.06-0.28,1.58s-0.27,1-.44,1.57a15.85,15.85,0,0,1-.6,1.54,16.5,16.5,0,0,1-.76,1.5q-0.43.74-.92,1.42c-0.32.45-.67,0.88-1,1.28a16.16,16.16,0,0,1-1.14,1.16c-0.39.37-.81,0.71-1.23,1s-0.87.62-1.32,0.9a3,3,0,0,0,3.18,5.19c0.62-.38,1.22-0.79,1.8-1.23A21.42,21.42,0,0,0,38.91,54a21.94,21.94,0,0,0,1.56-1.59c0.49-.56,1-1.15,1.41-1.76s0.86-1.26,1.25-1.93a20.15,20.15,0,0,0,1-2.05A20.71,20.71,0,0,0,45,44.59a22.9,22.9,0,0,0,1-4.31c0.09-.73.14-1.45,0.16-2.18h0c0-.19,0-0.38,0-0.57,0-.53,0-1.06-0.06-1.6-0.06-.72-0.14-1.44-0.25-2.14h0c-0.13-.71-0.28-1.41-0.46-2.11s-0.4-1.38-.66-2.06-0.54-1.34-.85-2a21,21,0,0,0-1-1.91c-0.38-.62-0.79-1.22-1.22-1.8-0.3-.39-0.61-0.77-0.93-1.14,0.44,0.22.88,0.45,1.3,0.71s0.89,0.58,1.32.9,0.83,0.66,1.23,1,0.78,0.76,1.13,1.16a16.1,16.1,0,0,1,1,1.29c0.32,0.45.63,0.92,0.92,1.41s0.53,1,.77,1.5,0.42,1,.6,1.54,0.31,1,.43,1.56,0.21,1.05.28,1.58,0.11,1.06.12,1.59a3,3,0,1,0,6.08-.16Q55.84,35.8,55.71,34.71Zm-21.83-.27a7.59,7.59,0,1,1,2.23-5.38A7.57,7.57,0,0,1,33.87,34.44Z" transform="translate(-1.13 -1)"/></g></g></g></svg>