<svg version="1.1" id="location-icon" xmlns="http://www.w3.org/2000/svg" xmlns:xlink="http://www.w3.org/1999/xlink" x="0px" y="0px"
	 width="76.9px" height="83.1px" viewBox="0 0 76.9 83.1" enable-background="new 0 0 76.9 83.1" xml:space="preserve">
	<g>
		<path fill="#FFFFFF" d="M70.4,38h-8.4C60.7,26,52,17.6,41,16.4V7.7C41,6.2,40,5,38.5,5C37,5,36,6.2,36,7.7v8.7
			C24,17.6,15.6,26,14.4,38H6c-1.5,0-2.7,1-2.7,2.5S4.5,43,6,43h8.4C15.6,54,24,62.7,36,63.9v9c0,1.5,1,2.7,2.5,2.7
			c1.5,0,2.5-1.2,2.5-2.7v-9C52,62.7,60.7,54,61.9,43h8.4c1.5,0,2.7-1,2.7-2.5S71.8,38,70.4,38z M38.1,58.8
			c-10.3,0-18.6-8.4-18.6-18.6s8.4-18.6,18.6-18.6c10.3,0,18.6,8.4,18.6,18.6S48.4,58.8,38.1,58.8z"/>
		<circle fill="#FFFFFF" cx="38.1" cy="40.3" r="5.9"/>
	</g>
</svg>
