<svg id="Layer_1" data-name="Layer 1" xmlns="http://www.w3.org/2000/svg" width="43.13" height="43.37" viewBox="0 0 43.13 43.37"><defs><style>.cls-1{fill:#fff;}</style></defs><title>ozone-icon</title><path class="cls-1" d="M28.77,9Q44.4,9,44.4,27.52T28.48,46Q12.57,46,12.57,27.1,12.57,9,28.77,9Zm-0.29,2.86q-2.94,0-4,3.24t-1,12.41q0,9.18,1,12.41t4,3.24q2.94,0,4-3.24t1-12.41q0-9.15-1-12.4T28.48,11.87Z" transform="translate(-12.57 -9.01)"/><path class="cls-1" d="M45,47.46l1.9-.1a6.4,6.4,0,0,0-.27,1.46q-0.1,2.27,2.4,2.27t2.46-2.77q0-2.8-2.94-2.8l-1.12,0V43.87h0.81q3.09,0,3.09-2.62A2,2,0,0,0,49.18,39Q47,39,47,41a6,6,0,0,0,.13,1.13l-1.9-.39q0-4,4.67-4,5.39,0,5.39,3.67,0,2.41-3,3.27,3.45,0.79,3.45,3.57,0,4.14-5.74,4.14-5.11,0-5.11-3.42A7.36,7.36,0,0,1,45,47.46Z" transform="translate(-12.57 -9.01)"/></svg>