<svg xmlns="http://www.w3.org/2000/svg" width="60.61" height="57.54" viewBox="0 0 56.64 53.54"><defs><style>.cls-1{fill:#fff;}</style></defs><title>partly-cloudy-night-icon</title><path class="cls-1" d="M55.83,16A15.55,15.55,0,0,0,37.21,5.47a15.54,15.54,0,0,1,9.37,22.08,17,17,0,0,1,6.14,3.18A15.52,15.52,0,0,0,55.83,16Z" transform="translate(-1 -5)"/><path class="cls-1" d="M53.38,33.72A14.7,14.7,0,0,0,43.1,29.46a14.3,14.3,0,0,0-1.87.12A17.6,17.6,0,0,0,11,35.68a11.48,11.48,0,0,0,1.49,22.86H43.1A14.54,14.54,0,0,0,53.38,33.72ZM50.14,51a9.91,9.91,0,0,1-7,2.92H12.48a6.89,6.89,0,0,1,0-13.78l.24,0h.21a6.63,6.63,0,0,1,2.46.61h0a6.76,6.76,0,0,1,1.15.67,2.3,2.3,0,1,0,2.7-3.71,11.47,11.47,0,0,0-1.91-1.13h0a11.32,11.32,0,0,0-1.58-.59,13,13,0,0,1,12.06-8.12,12.91,12.91,0,0,1,6.06,1.5,13,13,0,0,1,2.48,1.7,14,14,0,0,0-1.85,1.15,14.41,14.41,0,0,0-2.09,1.87,2.3,2.3,0,0,0,3.38,3.11A10,10,0,0,1,37.21,36a9.61,9.61,0,0,1,1.68-1,10,10,0,0,1,1.9-.66h0a10,10,0,0,1,2.3-.27c.23,0,.45,0,.68,0a9.87,9.87,0,0,1,4.81,1.62A10.06,10.06,0,0,1,50.14,37a9.95,9.95,0,0,1,0,14.07Z" transform="translate(-1 -5)"/></svg>