<svg version="1.1" id="playing-icon" xmlns="http://www.w3.org/2000/svg" xmlns:xlink="http://www.w3.org/1999/xlink" x="0px" y="0px"
	 width="81.7px" height="72.1px" viewBox="0 0 81.7 72.1" enable-background="new 0 0 81.7 72.1" xml:space="preserve">
	<g>
		<path fill="#FFFFFF" d="M6.1,24.9c0.2-0.4,0.4-0.9,0.7-1.3c0.6-0.7,1.4-0.9,2.2-0.9c3.4,0,6.8,0,10.2,0c0.5,0,0.9-0.1,1.2-0.5
			c4.7-5.3,9.4-10.6,14.1-15.9c0.5-0.6,1.2-1.1,1.9-1.4c1.5-0.7,3.1,0.1,3.5,1.7c0.1,0.5,0.1,1,0.1,1.4c0,18.3,0,36.5,0,54.8
			c0,0.8-0.1,1.6-0.4,2.4c-0.5,1.5-1.9,2-3.3,1.3c-0.6-0.3-1.2-0.8-1.7-1.3c-4.7-5.3-9.4-10.6-14.1-16c-0.3-0.4-0.7-0.5-1.2-0.5
			c-3.3,0-6.5,0-9.8,0c-1.7,0-2.8-0.5-3.3-2.2C6.1,39.4,6.1,32.2,6.1,24.9z"/>
		<path fill="#FFFFFF" d="M73.9,37.2c-0.2,1.5-0.3,3-0.7,4.5c-1.6,7.5-5.7,13.5-12.1,17.8c-1,0.7-2,1.3-3.1,1.8
			c-1,0.5-1.9,0.4-2.8-0.3c-0.8-0.7-1-1.6-0.8-2.6c0.2-0.9,0.9-1.5,1.6-1.9c3.1-1.6,5.8-3.9,7.9-6.7c3.7-5,5.3-10.6,4.5-16.8
			c-1-8.1-5.3-14.1-12.4-18.1c-1.1-0.6-1.8-1.4-1.7-2.8c0.2-1.5,1.8-2.7,3.2-2.1c1.3,0.6,2.6,1.3,3.8,2.1c6.6,4.6,10.7,11,12,18.9
			c0.2,1.1,0.3,2.1,0.4,3.2C73.9,35.3,73.9,36.3,73.9,37.2z" class="sound-wave-2" />
		<path fill="#FFFFFF" d="M60.8,35.7c-0.1,5.3-2.2,9.6-6,13.1C54,49.6,53,50.4,51.9,51c-1.7,1.1-3.7,0.3-4-1.6
			c-0.2-1.2,0.4-2.1,1.4-2.8c1.8-1.2,3.2-2.6,4.4-4.3c2.6-3.8,2.6-9.2,0-13c-1.1-1.7-2.6-3.1-4.2-4.2c-0.5-0.3-0.9-0.8-1.2-1.3
			c-0.6-0.9-0.4-2.2,0.4-2.9c0.7-0.8,2-1.1,2.9-0.5c1.4,0.9,2.8,1.9,4,3c2.9,2.9,4.7,6.3,5.2,10.4C60.8,34.5,60.8,35.1,60.8,35.7z" class="sound-wave-1"/>
	</g>
</svg>
