<svg version="1.1" xmlns="http://www.w3.org/2000/svg" xmlns:xlink="http://www.w3.org/1999/xlink" x="0px" y="0px"
	 width="44.7px" height="53.9px" viewBox="0 0 44.7 53.9" enable-background="new 0 0 44.7 53.9" xml:space="preserve">
	 <g>
	<path fill="#FFFFFF" d="M21.1,19.9L21.1,19.9c0.4-0.4,1.5-1.3,2-1.4l8.8-5.5l-5.6,8.8c-0.1,0.5-1,1.6-1.3,1.9l0,0l0,0c0,0,0,0,0,0
		c-1.1,1.1-2.8,1.1-3.8,0S20,21,21.1,19.9C21.1,20,21.1,19.9,21.1,19.9L21.1,19.9z"/>
	<path fill="#FFFFFF" d="M25,40.5c9-1.1,15.2-8.5,15.2-17.5c0-9.7-7.9-17.6-17.7-17.6S4.8,13.3,4.8,23c0,8.9,6.2,16.3,15.2,17.5v4.8
		L5,46.4V48h34v-1.6l-14-1.2V40.5z M8.8,23c0-7.6,6.2-13.8,13.8-13.8S36.3,15.4,36.3,23c0,7.6-6.2,13.8-13.8,13.8S8.8,30.6,8.8,23z"
		/>
	</g>
</svg>
