<svg xmlns="http://www.w3.org/2000/svg" width="61.65" height="59.06" viewBox="0 0 61.65 59.06"><defs><style>.cls-1{isolation:isolate;}.cls-2,.cls-3{mix-blend-mode:multiply;}.cls-3{fill:#fff;}</style></defs><title>rain-icon</title><g class="cls-1"><g id="Layer_1" data-name="Layer 1"><g class="cls-2"><path class="cls-3" d="M19.07,49.48L21,44.86a2.5,2.5,0,0,0-4.62-1.92l-1.91,4.62A2.5,2.5,0,0,0,19.07,49.48Z" transform="translate(-1.18 -1.15)"/><path class="cls-3" d="M30.73,49.48l1.91-4.62A2.5,2.5,0,0,0,28,42.95l-1.91,4.62A2.5,2.5,0,0,0,30.73,49.48Z" transform="translate(-1.18 -1.15)"/><path class="cls-3" d="M34.78,50.76a2.5,2.5,0,0,0-3.27,1.36L29.6,56.73a2.5,2.5,0,1,0,4.62,1.92L36.13,54A2.51,2.51,0,0,0,34.78,50.76Z" transform="translate(-1.18 -1.15)"/><path class="cls-3" d="M23.11,50.78a2.5,2.5,0,0,0-3.27,1.35l-1.91,4.61a2.5,2.5,0,0,0,4.62,1.92L24.46,54A2.5,2.5,0,0,0,23.11,50.78Z" transform="translate(-1.18 -1.15)"/><path class="cls-3" d="M43,41.6a2.5,2.5,0,0,0-3.26,1.35l-1.92,4.62a2.5,2.5,0,0,0,4.62,1.92l1.91-4.62A2.5,2.5,0,0,0,43,41.6Z" transform="translate(-1.18 -1.15)"/><path class="cls-3" d="M58.19,12.45A15.79,15.79,0,0,0,47,7.82,15.44,15.44,0,0,0,45,8a19.15,19.15,0,0,0-32.91,6.63,12.5,12.5,0,0,0,1.62,24.89H47A15.84,15.84,0,0,0,58.19,12.45ZM54.66,31.3A10.78,10.78,0,0,1,47,34.48H13.67a7.5,7.5,0,0,1,0-15h0.48a7.42,7.42,0,0,1,1.3.18,7.5,7.5,0,0,1,1.39.49,7.09,7.09,0,0,1,1.25.73,2.5,2.5,0,0,0,2.94-4,12.84,12.84,0,0,0-2.08-1.23A13,13,0,0,0,17.21,15,14.15,14.15,0,0,1,30.34,6.15a14.12,14.12,0,0,1,9.3,3.48,15.59,15.59,0,0,0-2,1.25,16.11,16.11,0,0,0-2.28,2A2.5,2.5,0,0,0,39,16.31a10.41,10.41,0,0,1,1.56-1.4,10.54,10.54,0,0,1,1.83-1.08,10.74,10.74,0,0,1,2.07-.72h0A10.83,10.83,0,0,1,54.66,31.3Z" transform="translate(-1.18 -1.15)"/></g></g></g></svg>