<svg xmlns="http://www.w3.org/2000/svg" width="61.21" height="58.91" viewBox="0 0 61.21 58.91"><defs><style>.cls-1{isolation:isolate;}.cls-2,.cls-3{mix-blend-mode:multiply;}.cls-3{fill:#fff;}</style></defs><title>sleet-icon</title><g class="cls-1"><g id="Layer_1" data-name="Layer 1"><g class="cls-2"><path class="cls-3" d="M19.76,49.26l1.9-4.59a2.48,2.48,0,0,0-4.58-1.9l-1.9,4.58A2.48,2.48,0,1,0,19.76,49.26Z" transform="translate(-1 -1.27)"/><path class="cls-3" d="M23.76,50.55a2.48,2.48,0,0,0-3.24,1.34l-1.9,4.59a2.48,2.48,0,0,0,4.59,1.9l1.9-4.58A2.49,2.49,0,0,0,23.76,50.55Z" transform="translate(-1 -1.27)"/><path class="cls-3" d="M41,52.74a1.24,1.24,0,0,0-1.69-.45L38,53.07V51.5a1.24,1.24,0,1,0-2.48,0v1.57l-1.36-.78a1.24,1.24,0,1,0-1.24,2.15l1.36,0.79L32.9,56a1.24,1.24,0,1,0,1.24,2.15l1.36-.79v1.57a1.24,1.24,0,0,0,2.48,0V57.37l1.36,0.79A1.24,1.24,0,1,0,40.59,56l-1.37-.79,1.37-.79A1.24,1.24,0,0,0,41,52.74Z" transform="translate(-1 -1.27)"/><path class="cls-3" d="M33.55,49A1.24,1.24,0,1,0,34.8,46.8L33.43,46l1.36-.79a1.24,1.24,0,0,0-1.24-2.15l-1.36.78V42.29a1.24,1.24,0,0,0-2.48,0v1.57l-1.36-.78a1.24,1.24,0,1,0-1.24,2.15L28.47,46l-1.36.79A1.24,1.24,0,1,0,28.35,49l1.36-.78v1.57a1.24,1.24,0,1,0,2.48,0V48.17Z" transform="translate(-1 -1.27)"/><path class="cls-3" d="M46.38,46.8L45,46l1.36-.79a1.24,1.24,0,0,0-1.24-2.15l-1.36.79V42.29a1.24,1.24,0,0,0-2.48,0v1.57l-1.37-.78a1.24,1.24,0,0,0-1.24,2.15L40,46l-1.36.79A1.24,1.24,0,0,0,39.93,49l1.37-.78v1.57a1.24,1.24,0,0,0,2.48,0V48.17L45.14,49A1.24,1.24,0,1,0,46.38,46.8Z" transform="translate(-1 -1.27)"/><path class="cls-3" d="M57.61,12.5A15.68,15.68,0,0,0,46.5,7.89a14.94,14.94,0,0,0-2,.14A19,19,0,0,0,11.8,14.62a12.41,12.41,0,0,0,1.61,24.71H46.5A15.72,15.72,0,0,0,57.61,12.5ZM54.1,31.21a10.73,10.73,0,0,1-7.61,3.15H13.41a7.44,7.44,0,0,1,0-14.89l0.26,0h0.22a7.61,7.61,0,0,1,1.29.18,7.28,7.28,0,0,1,1.38.49,7.1,7.1,0,0,1,1.24.72,2.48,2.48,0,1,0,2.92-4,12.44,12.44,0,0,0-2.07-1.22A13.14,13.14,0,0,0,16.93,15,14,14,0,0,1,39.18,9.7a16.28,16.28,0,0,0-2,1.25,16,16,0,0,0-2.26,2,2.48,2.48,0,1,0,3.66,3.36h0a10.5,10.5,0,0,1,1.55-1.39,10.71,10.71,0,0,1,1.81-1.07A10.87,10.87,0,0,1,44,13.15h0A10.75,10.75,0,0,1,54.1,31.21Z" transform="translate(-1 -1.27)"/></g></g></g></svg>