<svg xmlns="http://www.w3.org/2000/svg" width="61.98" height="59.65" viewBox="0 0 61.98 59.65"><defs><style>.cls-1{isolation:isolate;}.cls-2,.cls-3{mix-blend-mode:multiply;}.cls-3{fill:#fff;}</style></defs><title>snow-icon</title><g class="cls-1"><g id="Layer_1" data-name="Layer 1"><g class="cls-2"><path class="cls-3" d="M22.9,49.28a1.26,1.26,0,1,0,1.25-2.18l-1.38-.79,1.38-.8a1.26,1.26,0,1,0-1.25-2.18l-1.38.8V42.53a1.26,1.26,0,1,0-2.51,0v1.59l-1.38-.8a1.26,1.26,0,0,0-1.26,2.18l1.38,0.79-1.38.8a1.26,1.26,0,0,0,1.26,2.18l1.38-.8v1.59a1.26,1.26,0,0,0,2.51,0V48.48Z" transform="translate(-1 -1)"/><path class="cls-3" d="M30,56.42l-1.38-.79,1.38-.8a1.26,1.26,0,0,0-1.26-2.17l-1.38.79V51.86a1.26,1.26,0,1,0-2.51,0v1.59l-1.38-.8a1.26,1.26,0,0,0-1.26,2.17l1.38,0.8-1.38.79a1.26,1.26,0,0,0,1.26,2.18l1.38-.8v1.59a1.26,1.26,0,1,0,2.51,0V57.8l1.38,0.8A1.26,1.26,0,1,0,30,56.42Z" transform="translate(-1 -1)"/><path class="cls-3" d="M42.21,53.11a1.26,1.26,0,0,0-1.72-.46l-1.38.8V51.86a1.26,1.26,0,1,0-2.51,0v1.59l-1.38-.8A1.26,1.26,0,1,0,34,54.83l1.38,0.8-1.38.8a1.26,1.26,0,1,0,1.25,2.17l1.38-.8v1.59a1.26,1.26,0,1,0,2.51,0V57.8l1.38,0.8a1.26,1.26,0,0,0,1.26-2.18l-1.38-.79,1.38-.8A1.26,1.26,0,0,0,42.21,53.11Z" transform="translate(-1 -1)"/><path class="cls-3" d="M34.63,49.28a1.26,1.26,0,0,0,1.25-2.18L34.5,46.3l1.38-.8a1.26,1.26,0,1,0-1.25-2.18l-1.38.8V42.53a1.26,1.26,0,1,0-2.51,0v1.59l-1.38-.8a1.26,1.26,0,0,0-1.26,2.18l1.38,0.79-1.38.8a1.26,1.26,0,0,0,1.26,2.18l1.38-.8v1.59a1.26,1.26,0,0,0,2.51,0V48.48Z" transform="translate(-1 -1)"/><path class="cls-3" d="M47.61,47.1l-1.38-.79,1.38-.8a1.26,1.26,0,0,0-1.26-2.18l-1.38.8V42.53a1.26,1.26,0,0,0-2.51,0v1.59l-1.38-.8a1.26,1.26,0,0,0-1.26,2.18L41.2,46.3l-1.38.79a1.26,1.26,0,0,0,1.26,2.18l1.38-.8v1.59a1.26,1.26,0,0,0,2.51,0V48.48l1.38,0.8A1.26,1.26,0,1,0,47.61,47.1Z" transform="translate(-1 -1)"/><path class="cls-3" d="M58.32,12.36A15.87,15.87,0,0,0,47.06,7.7a15,15,0,0,0-2,.14,19.25,19.25,0,0,0-33.09,6.67,12.56,12.56,0,0,0,1.64,25h33.5A15.92,15.92,0,0,0,58.32,12.36Zm-3.55,19a10.86,10.86,0,0,1-7.71,3.19H13.56a7.54,7.54,0,0,1,0-15.08l0.27,0H14a7.12,7.12,0,0,1,2.7.68,7.31,7.31,0,0,1,1.25.73,2.51,2.51,0,1,0,3-4.06,12.44,12.44,0,0,0-2.09-1.23,13,13,0,0,0-1.73-.65A14.23,14.23,0,0,1,30.31,6a14.1,14.1,0,0,1,6.63,1.64,14.27,14.27,0,0,1,2.71,1.86,16.68,16.68,0,0,0-2,1.26,16.28,16.28,0,0,0-2.29,2.05,2.51,2.51,0,0,0,3.7,3.4h0a10.48,10.48,0,0,1,1.57-1.41,10.69,10.69,0,0,1,1.83-1.09A11.09,11.09,0,0,1,44.54,13h0A10.89,10.89,0,0,1,54.77,31.31Z" transform="translate(-1 -1)"/></g></g></g></svg>