<svg xmlns="http://www.w3.org/2000/svg" width="32.6" height="39.97" viewBox="0 0 32.6 39.97"><defs><style>.cls-1{isolation:isolate;}.cls-2,.cls-3{mix-blend-mode:multiply;}.cls-3{fill:#fff;}</style></defs><title>storm-distance-icon</title><g class="cls-1"><g id="Layer_1" data-name="Layer 1"><g class="cls-2"><circle class="cls-3" cx="14.69" cy="37.62" r="2.35"/><path class="cls-3" d="M19,40.26a2.35,2.35,0,0,0-2.35-2.35H10.27a2.35,2.35,0,0,0,0,4.7h6.36A2.35,2.35,0,0,0,19,40.26Z" transform="translate(-2.74 -9.69)"/><path class="cls-3" d="M20.15,30.85H9.6a2.35,2.35,0,0,0,0,4.7H20.15A2.35,2.35,0,1,0,20.15,30.85Z" transform="translate(-2.74 -9.69)"/><path class="cls-3" d="M29.91,23.8H11.26a2.35,2.35,0,1,0,0,4.7H29.91A2.35,2.35,0,0,0,29.91,23.8Z" transform="translate(-2.74 -9.69)"/><path class="cls-3" d="M33,16.74H10.24a2.35,2.35,0,0,0,0,4.7H33A2.35,2.35,0,1,0,33,16.74Z" transform="translate(-2.74 -9.69)"/><path class="cls-3" d="M32,14.39a2.35,2.35,0,0,0,0-4.7H5.09a2.35,2.35,0,1,0,0,4.7H32Z" transform="translate(-2.74 -9.69)"/></g></g></g></svg>