<svg xmlns="http://www.w3.org/2000/svg" width="46.89" height="57.5" viewBox="0 0 46.89 57.5"><defs><style>.cls-1{isolation:isolate;}.cls-2,.cls-3{mix-blend-mode:multiply;}.cls-3{fill:#fff;}</style></defs><title>storm-distance-icon</title><g class="cls-1"><g id="Layer_1" data-name="Layer 1"><g class="cls-2"><path class="cls-3" d="M31.71,52.4a3.38,3.38,0,1,0,3.38,3.38A3.39,3.39,0,0,0,31.71,52.4Z" transform="translate(-10.57 -1.66)"/><path class="cls-3" d="M33.94,45.64a3.39,3.39,0,0,0-3.39-3.38H21.41a3.38,3.38,0,0,0,0,6.77h9.15A3.38,3.38,0,0,0,33.94,45.64Z" transform="translate(-10.57 -1.66)"/><path class="cls-3" d="M35.61,32.11H20.44a3.38,3.38,0,0,0,0,6.76H35.61A3.38,3.38,0,1,0,35.61,32.11Z" transform="translate(-10.57 -1.66)"/><path class="cls-3" d="M49.66,22H22.83a3.38,3.38,0,1,0,0,6.76H49.66A3.38,3.38,0,0,0,49.66,22Z" transform="translate(-10.57 -1.66)"/><path class="cls-3" d="M54.08,11.81H21.37a3.38,3.38,0,0,0,0,6.76H54.08A3.38,3.38,0,1,0,54.08,11.81Z" transform="translate(-10.57 -1.66)"/><path class="cls-3" d="M52.62,8.43a3.38,3.38,0,0,0,0-6.77H14a3.38,3.38,0,1,0,0,6.77H52.62Z" transform="translate(-10.57 -1.66)"/></g></g></g></svg>