<svg xmlns="http://www.w3.org/2000/svg" width="61.6" height="51.16" viewBox="0 0 61.6 51.16"><defs><style>.cls-1{isolation:isolate;}.cls-2,.cls-3{mix-blend-mode:multiply;}.cls-3{fill:#fff;}</style></defs><title>storm-icon</title><g class="cls-1"><g id="Layer_1" data-name="Layer 1"><g class="cls-2"><path class="cls-3" d="M19.71,42.14a2.5,2.5,0,0,0-3.26,1.35l-1.91,4.61A2.5,2.5,0,1,0,19.15,50l1.92-4.62A2.5,2.5,0,0,0,19.71,42.14Z" transform="translate(-1.27 -1.73)"/><path class="cls-3" d="M30.12,42.14a2.5,2.5,0,0,0-3.26,1.35l-1.91,4.61A2.5,2.5,0,1,0,29.56,50l1.91-4.62A2.49,2.49,0,0,0,30.12,42.14Z" transform="translate(-1.27 -1.73)"/><path class="cls-3" d="M62.87,24.21A15.78,15.78,0,0,0,45,8.53a19.13,19.13,0,0,0-32.89,6.63A12.49,12.49,0,0,0,13.76,40H32a2.5,2.5,0,0,0,0-5H13.76a7.49,7.49,0,0,1,0-15l0.26,0h0.08a7.85,7.85,0,0,1,1.43.2,7.26,7.26,0,0,1,1.39.49,7.11,7.11,0,0,1,1.25.73,2.5,2.5,0,1,0,2.94-4A12.69,12.69,0,0,0,19,16.21a12.47,12.47,0,0,0-1.72-.65A14.13,14.13,0,0,1,30.41,6.73,14,14,0,0,1,37,8.36a13.89,13.89,0,0,1,2.7,1.85,15.86,15.86,0,0,0-4.28,3.29,2.5,2.5,0,1,0,3.67,3.38h0a10.83,10.83,0,0,1,3.38-2.48,11.16,11.16,0,0,1,2.08-.72h0A10.81,10.81,0,0,1,57.88,24.21h0c0,0.19,0,.37,0,0.55s0,0.37,0,.55,0,0.36-.07.55-0.06.35-.1,0.53-0.07.34-.12,0.53-0.09.34-.14,0.5-0.11.34-.17,0.5-0.13.33-.2,0.5-0.14.32-.21,0.48-0.16.32-.24,0.46-0.17.31-.26,0.46L56,30.26h0l-0.3.42-0.32.41-0.33.39h0l-0.35.37-0.38.36-0.39.34-0.41.32a2.5,2.5,0,1,0,3,4l0.6-.47,0.57-.49,0.55-.53,0.52-.55c0.17-.19.34-0.38,0.5-0.58s0.32-.39.47-0.59,0.3-.41.44-0.62,0.28-.42.42-0.65,0.26-.44.38-0.66,0.24-.45.35-0.68,0.22-.47.32-0.71,0.19-.47.28-0.72,0.18-.49.26-0.74,0.14-.49.21-0.74,0.12-.51.18-0.77,0.1-.51.14-0.77,0.08-.53.1-0.79,0-.54.06-0.81,0-.53,0-0.8h0Z" transform="translate(-1.27 -1.73)"/><path class="cls-3" d="M58.77,34.84h0Z" transform="translate(-1.27 -1.73)"/><path class="cls-3" d="M60.17,33.05h0Z" transform="translate(-1.27 -1.73)"/><path class="cls-3" d="M51.29,24.69H46.06a2.79,2.79,0,0,0-2.46,1.47L37.37,37.83A1.5,1.5,0,0,0,38.69,40H41.2L36.09,52.38a0.37,0.37,0,0,0,.63.38l13-15.8A1.18,1.18,0,0,0,48.78,35H45.32l6.89-8.4A1.18,1.18,0,0,0,51.29,24.69Z" transform="translate(-1.27 -1.73)"/></g></g></g></svg>