<svg version="1.1" xmlns="http://www.w3.org/2000/svg" xmlns:xlink="http://www.w3.org/1999/xlink" x="0px" y="0px"
	 width="72px" height="69px" viewBox="0 0 72 69" enable-background="new 0 0 72 69" xml:space="preserve">
<g id="_x30_1">
	<path fill="#FFFFFF" d="M37.4,3.9c0-1.6-1.3-2.9-2.9-2.9c-1.6,0-2.9,1.3-2.9,2.9v6.5c0,1.6,1.3,2.9,2.9,2.9c1.6,0,2.9-1.3,2.9-2.9
		V3.9z"/>
	<path fill="#FFFFFF" d="M14.9,10.8c-1.1-1.1-2.9-1.1-4,0s-1.1,2.9,0,4l4.5,4.5c1.1,1.1,2.9,1.1,4,0c1.1-1.1,1.1-2.9,0-4L14.9,10.8z
		"/>
	<path fill="#FFFFFF" d="M3.9,30.7C2.3,30.7,1,32,1,33.6c0,1.6,1.3,2.9,2.9,2.9h6.5c1.6,0,2.9-1.3,2.9-2.9c0-1.6-1.3-2.9-2.9-2.9
		H3.9z"/>
	<path fill="#FFFFFF" d="M10.8,54.1c-1.1,1.1-1.1,2.9,0,4c1.1,1.1,2.9,1.1,4,0l4.5-4.5c1.1-1.1,1.1-2.9,0-4c-1.1-1.1-2.9-1.1-4,0
		L10.8,54.1z"/>
	<path fill="#FFFFFF" d="M31.6,64.2c0,1.6,1.3,2.9,2.9,2.9c1.6,0,2.9-1.3,2.9-2.9v-6.5c0-1.6-1.3-2.9-2.9-2.9
		c-1.6,0-2.9,1.3-2.9,2.9V64.2z"/>
	<path fill="#FFFFFF" d="M54.1,58.2c1.1,1.1,2.9,1.1,4,0c1.1-1.1,1.1-2.9,0-4l-4.5-4.5c-1.1-1.1-2.9-1.1-4,0c-1.1,1.1-1.1,2.9,0,4
		L54.1,58.2z"/>
	<path fill="#FFFFFF" d="M63.2,37.4c1.6,0,2.9-1.3,2.9-2.9c0-1.6-1.3-2.9-2.9-2.9h-6.5c-1.6,0-2.9,1.3-2.9,2.9
		c0,1.6,1.3,2.9,2.9,2.9H63.2z"/>
	<path fill="#FFFFFF" d="M58.2,14.9c1.1-1.1,1.1-2.9,0-4c-1.1-1.1-2.9-1.1-4,0l-4.5,4.5c-1.1,1.1-1.1,2.9,0,4c1.1,1.1,2.9,1.1,4,0
		L58.2,14.9z"/>
	<path fill="#FFFFFF" d="M34.5,16.6c-9.8,0-17.9,8.1-17.9,17.9s8.1,17.9,17.9,17.9s17.9-8.1,17.9-17.9S44.5,16.6,34.5,16.6z
		 M34.5,46.8c-6.8,0-12.3-5.5-12.3-12.3s5.5-12.3,12.3-12.3s12.3,5.5,12.3,12.3S41.3,46.8,34.5,46.8z"/>
</g>
</svg>
