<svg xmlns="http://www.w3.org/2000/svg" width="48.66" height="50.91" viewBox="0 0 48.66 50.91"><defs><style>.cls-1{isolation:isolate;}.cls-2,.cls-3{mix-blend-mode:multiply;}.cls-3{fill:#fff;}</style></defs><title>sun-icon</title><g class="cls-1"><g id="Layer_1" data-name="Layer 1"><g class="cls-2"><path class="cls-3" d="M32.95,17.56a12.72,12.72,0,1,0,9,3.72A12.69,12.69,0,0,0,32.95,17.56Zm5.4,18.12a7.63,7.63,0,1,1,2.24-5.4A7.61,7.61,0,0,1,38.35,35.68Z" transform="translate(-8.62 -4.83)"/><path class="cls-3" d="M32.95,15a2.54,2.54,0,0,0,2.54-2.54V7.38a2.54,2.54,0,1,0-5.09,0v5.09A2.54,2.54,0,0,0,32.95,15Z" transform="translate(-8.62 -4.83)"/><path class="cls-3" d="M20.41,17.37a2.55,2.55,0,0,0,4.12-3l-3-4.12a2.55,2.55,0,0,0-4.12,3Z" transform="translate(-8.62 -4.83)"/><path class="cls-3" d="M10.37,25.63l4.84,1.57a2.54,2.54,0,0,0,1.58-4.84l-4.84-1.57A2.54,2.54,0,0,0,10.37,25.63Z" transform="translate(-8.62 -4.83)"/><path class="cls-3" d="M18.42,35a2.54,2.54,0,0,0-3.21-1.63l-4.84,1.57a2.54,2.54,0,0,0,1.57,4.84l4.84-1.57A2.55,2.55,0,0,0,18.42,35Z" transform="translate(-8.62 -4.83)"/><path class="cls-3" d="M24,42.64a2.55,2.55,0,0,0-3.55.56l-3,4.12a2.55,2.55,0,0,0,4.12,3l3-4.12A2.54,2.54,0,0,0,24,42.64Z" transform="translate(-8.62 -4.83)"/><path class="cls-3" d="M32.95,45.56A2.54,2.54,0,0,0,30.4,48.1v5.09a2.54,2.54,0,1,0,5.09,0V48.1A2.55,2.55,0,0,0,32.95,45.56Z" transform="translate(-8.62 -4.83)"/><path class="cls-3" d="M45.48,43.2a2.55,2.55,0,1,0-4.12,3l3,4.12a2.54,2.54,0,0,0,4.12-3Z" transform="translate(-8.62 -4.83)"/><path class="cls-3" d="M55.52,34.94l-4.84-1.57a2.54,2.54,0,0,0-1.57,4.84l4.85,1.57A2.54,2.54,0,0,0,55.52,34.94Z" transform="translate(-8.62 -4.83)"/><path class="cls-3" d="M47.47,25.56a2.54,2.54,0,0,0,3.21,1.63l4.84-1.57a2.55,2.55,0,0,0-1.58-4.84L49.1,22.36A2.54,2.54,0,0,0,47.47,25.56Z" transform="translate(-8.62 -4.83)"/><path class="cls-3" d="M41.92,17.93a2.55,2.55,0,0,0,3.56-.56l3-4.12a2.54,2.54,0,0,0-4.12-3l-3,4.12A2.55,2.55,0,0,0,41.92,17.93Z" transform="translate(-8.62 -4.83)"/></g></g></g></svg>