<?xml version="1.0" encoding="utf-8"?>
<!-- Generator: Adobe Illustrator 19.2.1, SVG Export Plug-In . SVG Version: 6.00 Build 0)  -->
<!DOCTYPE svg PUBLIC "-//W3C//DTD SVG 1.1//EN" "http://www.w3.org/Graphics/SVG/1.1/DTD/svg11.dtd">
<svg version="1.1" id="Layer_1" xmlns="http://www.w3.org/2000/svg" xmlns:xlink="http://www.w3.org/1999/xlink" x="0px" y="0px"
	 width="43.5px" height="60.9px" viewBox="0 0 43.5 60.9" enable-background="new 0 0 43.5 60.9" xml:space="preserve">
<g id="_x35_4">
	<path fill="#FFFFFF" d="M27,37.6l0-23c0-2.6-2.1-4.6-4.6-4.6c-2.6,0-4.6,2.1-4.6,4.6v23c-1.9,1.4-3.1,3.6-3.1,6.1
		c0,4.3,3.4,7.7,7.7,7.7c4.3,0,7.7-3.4,7.7-7.7C30,41.3,28.8,39,27,37.6z M22.3,48.7c-2.7,0-4.9-2.2-4.9-4.9c0-2,1.3-3.8,3.1-4.5
		V14.8c0-1,0.8-1.8,1.8-1.8c1,0,1.8,0.8,1.8,1.8v1.9h-1.5c-0.4,0-0.6,0.3-0.6,0.6c0,0.4,0.3,0.6,0.6,0.6h1.5v3.7h-1.5
		c-0.4,0-0.6,0.3-0.6,0.6c0,0.4,0.3,0.6,0.6,0.6h1.5v16.3c1.8,0.7,3.1,2.5,3.1,4.5C27.2,46.5,25,48.7,22.3,48.7z"/>
	<path fill="#FFFFFF" d="M23.1,40.6V26.8c0-0.4-0.4-0.8-0.8-0.8s-0.8,0.4-0.8,0.8v13.8c-1.5,0.4-2.5,1.7-2.5,3.2
		c0,1.8,1.5,3.3,3.3,3.3s3.3-1.5,3.3-3.3C25.7,42.2,24.6,40.9,23.1,40.6z"/>
</g>
</svg>
