<svg xmlns="http://www.w3.org/2000/svg" width="25.27" height="48.54" viewBox="0 0 25.27 48.54"><defs><style>.cls-1{isolation:isolate;}.cls-2{mix-blend-mode:multiply;}.cls-3{fill:#fff;}</style></defs><title>temperature-icon</title><g class="cls-1"><g id="Layer_2" data-name="Layer 2"><g class="cls-2"><path class="cls-3" d="M42.27,32.58V14.52a9.19,9.19,0,1,0-18.38,0V32.58A12.64,12.64,0,1,0,42.27,32.58Zm-9.19,16.7a8,8,0,0,1-4.59-14.63V14.52a4.59,4.59,0,1,1,9.19,0V34.65A8,8,0,0,1,33.08,49.28Z" transform="translate(-20.44 -5.33)"/><path class="cls-3" d="M35.37,36V21.83a2.3,2.3,0,1,0-4.59,0V36A5.74,5.74,0,1,0,35.37,36Z" transform="translate(-20.44 -5.33)"/><path class="cls-3" d="M39.68,30.27a1.15,1.15,0,1,1,0-2.29h4.89a1.15,1.15,0,1,1,0,2.29H39.68Z" transform="translate(-20.44 -5.33)"/><path class="cls-3" d="M39.68,23a1.15,1.15,0,1,1,0-2.29h4.89a1.15,1.15,0,1,1,0,2.29H39.68Z" transform="translate(-20.44 -5.33)"/><path class="cls-3" d="M39.68,15.67a1.15,1.15,0,1,1,0-2.29h4.89a1.15,1.15,0,1,1,0,2.29H39.68Z" transform="translate(-20.44 -5.33)"/></g></g></g></svg>