<svg id="Layer_1" data-name="Layer 1" xmlns="http://www.w3.org/2000/svg" width="61.69" height="53.75" viewBox="0 0 64 61.03"><defs><style>.cls-1{fill:#fff;}</style></defs><title>uv-icon</title><path class="cls-1" d="M47.73,37c-.8.52-1.65,1-2.43,1.51a18,18,0,0,0-2.48,1.87c-1.95,1.9-1.82,4.23.34,5.88a28.29,28.29,0,0,0,3.18,1.94,1.76,1.76,0,0,0,2.54-.56A1.78,1.78,0,0,0,48,45.17c-.76-.43-1.54-.82-2.3-1.25-1-.54-1-.84,0-1.46s1.9-1.12,2.8-1.75a14.71,14.71,0,0,0,2.39-2A3.42,3.42,0,0,0,51,34.08,12.5,12.5,0,0,0,48.49,32c-.9-.62-1.92-1.07-2.87-1.62s-.85-.76,0-1.3,1.66-.95,2.45-1.48a18,18,0,0,0,2.55-1.88,3.54,3.54,0,0,0,.22-5.19,10.23,10.23,0,0,0-2.14-1.78c-1-.66-2.1-1.18-3.14-1.78-.71-.41-.74-.72-.08-1.18.85-.59,1.77-1.08,2.63-1.67a25,25,0,0,0,2.57-2A3.3,3.3,0,0,0,51.8,9.59a3.54,3.54,0,0,0-1.1-2.74,19.71,19.71,0,0,0-2.56-2c-.83-.54-1.75-.95-2.6-1.46A1.36,1.36,0,0,1,45,2.69a1.77,1.77,0,1,0-3.48.61,3.15,3.15,0,0,0,1.05,2.07A21.25,21.25,0,0,0,44.9,7.09c.89.57,1.86,1,2.75,1.59s.87,1,0,1.57c-1,.68-2.16,1.25-3.16,2a11.36,11.36,0,0,0-2.25,2,3.31,3.31,0,0,0,.31,4.62,9.87,9.87,0,0,0,1.71,1.34c.84.53,1.74,1,2.6,1.47a7.57,7.57,0,0,1,1.09.72c.5.42.49.79-.05,1.14s-1.39.82-2.08,1.26c-.86.54-1.72,1.09-2.54,1.69a5.13,5.13,0,0,0-1,1,3.32,3.32,0,0,0,.25,4.67,18,18,0,0,0,2.72,1.95c.8.52,1.67.92,2.47,1.44S48.5,36.54,47.73,37Z"/><path class="cls-1" d="M18.43,37c-.81.54-1.68,1-2.48,1.55a18.67,18.67,0,0,0-2.62,2,3.52,3.52,0,0,0,.31,5.7A27.9,27.9,0,0,0,17,48.26a1.75,1.75,0,1,0,1.71-3c-.83-.47-1.68-.9-2.51-1.37s-.8-.76-.07-1.26,1.82-1.09,2.68-1.69a16.85,16.85,0,0,0,2.58-2,3.51,3.51,0,0,0,.09-5,10.64,10.64,0,0,0-2.18-1.82c-1-.66-2.1-1.18-3.14-1.78-.71-.41-.74-.72-.05-1.17.92-.6,1.91-1.1,2.82-1.71a15.73,15.73,0,0,0,2.49-1.94,3.41,3.41,0,0,0,.22-4.7,10.8,10.8,0,0,0-2.32-2c-1-.67-2.09-1.18-3.14-1.78-.72-.41-.75-.74-.05-1.22.85-.59,1.78-1.07,2.63-1.66a25.16,25.16,0,0,0,2.6-2,3.25,3.25,0,0,0,1.07-2.57A3.57,3.57,0,0,0,22.11,8a3.51,3.51,0,0,0-.36-.64,3.89,3.89,0,0,0-.49-.57,13.92,13.92,0,0,0-2.14-1.69c-1-.61-2-1.1-3-1.69a1.47,1.47,0,0,1-.59-.79,1.79,1.79,0,0,0-2.05-1.39,1.77,1.77,0,0,0-1.41,2,3.2,3.2,0,0,0,1.13,2.22,19.43,19.43,0,0,0,2.27,1.63c.89.56,1.86,1,2.75,1.58s.88,1,0,1.57-2,1.17-3,1.85a12.93,12.93,0,0,0-2.42,2.12,3.34,3.34,0,0,0,.3,4.71,8.75,8.75,0,0,0,1.51,1.19c.82.52,1.7,1,2.54,1.45a10.67,10.67,0,0,1,1.26.8c.58.45.56.83,0,1.22s-1.55.89-2.29,1.38a20.86,20.86,0,0,0-2.54,1.78c-2.17,1.93-2.07,4.36.24,6.12a30.33,30.33,0,0,0,2.7,1.66c.64.39,1.31.73,1.91,1.16S19,36.56,18.43,37Z"/><path class="cls-1" d="M28.33,45.55a1.8,1.8,0,0,0-1.86.56L18,54.57a6.9,6.9,0,0,0-.5.66c-.33-.37-.53-.61-.75-.83q-4.16-4.17-8.33-8.33A1.76,1.76,0,1,0,6,48.55c.56.58,1.14,1.15,1.72,1.72l8.42,8.41a1.72,1.72,0,0,0,2.59.16q5.22-5.18,10.4-10.39a1.64,1.64,0,0,0,.46-1.6A1.67,1.67,0,0,0,28.33,45.55Z"/><path class="cls-1" d="M59,46.89a1.67,1.67,0,0,0-1.19-1.32,1.77,1.77,0,0,0-1.87.52l-8.5,8.51a5.55,5.55,0,0,0-.46.63c-.28-.31-.41-.47-.56-.61l-8.55-8.54a1.75,1.75,0,1,0-2.5,2.46q5.12,5.14,10.26,10.26a1.7,1.7,0,0,0,2.55,0q5.17-5.14,10.31-10.31A1.67,1.67,0,0,0,59,46.89Z"/></svg>