<svg xmlns="http://www.w3.org/2000/svg" width="61.83" height="48.61" viewBox="0 0 61.83 48.61"><defs><style>.cls-1{isolation:isolate;}.cls-2,.cls-3{mix-blend-mode:multiply;}.cls-3{fill:#fff;}</style></defs><title>visibility-icon</title><g class="cls-1"><g id="Layer_1" data-name="Layer 1"><g class="cls-2"><path class="cls-3" d="M6,10.84A27.24,27.24,0,0,1,18.27,7.75a27.24,27.24,0,0,1,12.3,3.09,33.94,33.94,0,0,0,15.28,3.8,33.93,33.93,0,0,0,15.28-3.8,3.34,3.34,0,1,0-3-6A27.27,27.27,0,0,1,45.85,8a27.28,27.28,0,0,1-12.3-3.09,34,34,0,0,0-15.28-3.8A34,34,0,0,0,3,4.87,3.34,3.34,0,1,0,6,10.84Z" transform="translate(-1.14 -1.07)"/><path class="cls-3" d="M58.14,16.55a27.17,27.17,0,0,1-12.29,3.1,27.17,27.17,0,0,1-12.3-3.1,34.06,34.06,0,0,0-15.28-3.8A34,34,0,0,0,3,16.55a3.34,3.34,0,1,0,3,6,27.22,27.22,0,0,1,12.29-3.09,27.22,27.22,0,0,1,12.3,3.09,34,34,0,0,0,15.28,3.8,34,34,0,0,0,15.28-3.8A3.34,3.34,0,0,0,58.14,16.55Z" transform="translate(-1.14 -1.07)"/><path class="cls-3" d="M58.14,28.23a27.29,27.29,0,0,1-12.29,3.09,27.3,27.3,0,0,1-12.3-3.09,33.93,33.93,0,0,0-15.28-3.8A33.91,33.91,0,0,0,3,28.23a3.34,3.34,0,1,0,3,6A27.26,27.26,0,0,1,18.27,31.1a27.27,27.27,0,0,1,12.3,3.09A33.93,33.93,0,0,0,45.85,38a33.93,33.93,0,0,0,15.28-3.8A3.34,3.34,0,1,0,58.14,28.23Z" transform="translate(-1.14 -1.07)"/><path class="cls-3" d="M58.14,39.91A27.22,27.22,0,0,1,45.85,43a27.23,27.23,0,0,1-12.3-3.09,34,34,0,0,0-15.28-3.8A34,34,0,0,0,3,39.91a3.34,3.34,0,1,0,3,6,27.18,27.18,0,0,1,12.29-3.1,27.18,27.18,0,0,1,12.3,3.1,34,34,0,0,0,15.28,3.8,34,34,0,0,0,15.28-3.8A3.34,3.34,0,0,0,58.14,39.91Z" transform="translate(-1.14 -1.07)"/></g></g></g></svg>