<svg xmlns="http://www.w3.org/2000/svg" width="39.39" height="30.96" viewBox="0 0 39.39 30.96"><defs><style>.cls-1{isolation:isolate;}.cls-2,.cls-3{mix-blend-mode:multiply;}.cls-3{fill:#fff;}</style></defs><title>visibility-icon</title><g class="cls-1"><g id="Layer_1" data-name="Layer 1"><g class="cls-2"><path class="cls-3" d="M4.82,7.41a17.35,17.35,0,0,1,7.83-2,17.35,17.35,0,0,1,7.84,2,21.62,21.62,0,0,0,9.73,2.42A21.62,21.62,0,0,0,40,7.41a2.13,2.13,0,1,0-1.9-3.8,17.37,17.37,0,0,1-7.83,2,17.38,17.38,0,0,1-7.83-2,21.64,21.64,0,0,0-9.74-2.42A21.62,21.62,0,0,0,2.92,3.61,2.12,2.12,0,1,0,4.82,7.41Z" transform="translate(-1.74 -1.19)"/><path class="cls-3" d="M38.05,11a17.3,17.3,0,0,1-7.83,2,17.31,17.31,0,0,1-7.83-2,21.7,21.7,0,0,0-9.74-2.42A21.68,21.68,0,0,0,2.92,11a2.13,2.13,0,1,0,1.9,3.81,17.34,17.34,0,0,1,7.83-2,17.34,17.34,0,0,1,7.84,2,21.65,21.65,0,0,0,9.73,2.42A21.64,21.64,0,0,0,40,14.85,2.13,2.13,0,0,0,38.05,11Z" transform="translate(-1.74 -1.19)"/><path class="cls-3" d="M38.05,18.49a17.38,17.38,0,0,1-7.83,2,17.39,17.39,0,0,1-7.83-2,21.62,21.62,0,0,0-9.74-2.42,21.6,21.6,0,0,0-9.73,2.42,2.12,2.12,0,1,0,1.9,3.8,17.37,17.37,0,0,1,7.83-2,17.37,17.37,0,0,1,7.84,2,21.62,21.62,0,0,0,9.73,2.42A21.61,21.61,0,0,0,40,22.29,2.12,2.12,0,1,0,38.05,18.49Z" transform="translate(-1.74 -1.19)"/><path class="cls-3" d="M38.05,25.93a17.34,17.34,0,0,1-7.83,2,17.35,17.35,0,0,1-7.83-2,21.66,21.66,0,0,0-9.74-2.42,21.64,21.64,0,0,0-9.73,2.42,2.13,2.13,0,1,0,1.9,3.8,17.31,17.31,0,0,1,7.83-2,17.32,17.32,0,0,1,7.84,2,21.64,21.64,0,0,0,9.73,2.42A21.64,21.64,0,0,0,40,29.74,2.13,2.13,0,0,0,38.05,25.93Z" transform="translate(-1.74 -1.19)"/></g></g></g></svg>