<svg version="1.1" xmlns="http://www.w3.org/2000/svg" xmlns:xlink="http://www.w3.org/1999/xlink" x="0px" y="0px"
	 width="101px" height="67.2px" viewBox="0 0 101 67.2" enable-background="new 0 0 101 67.2" xml:space="preserve">
	 <g>
		<path fill="#FFFFFF" d="M68.2,18.1c1.4,0,2.5-1.1,2.5-2.5v-5.5c0-1.4-1.1-2.5-2.5-2.5c-1.4,0-2.5,1.1-2.5,2.5l0,5.5
			C65.7,17,66.8,18.1,68.2,18.1z"/>
		<path fill="#FFFFFF" d="M51.6,23.5c1,1,2.6,1,3.5,0c1-1,1-2.6,0-3.5L51.3,16c-1-1-2.6-1-3.5,0c-1,1-1,2.6,0,3.5L51.6,23.5z"/>
		<path fill="#FFFFFF" d="M84.7,49.5c-1-1-2.6-1-3.5,0c-1,1-1,2.6,0,3.5l3.9,3.9c1,1,2.6,1,3.5,0c1-1,1-2.6,0-3.5L84.7,49.5z"/>
		<path fill="#FFFFFF" d="M94.6,34h-5.5c-1.4,0-2.5,1.1-2.5,2.5c0,1.4,1.1,2.5,2.5,2.5l5.5,0c1.4,0,2.5-1.1,2.5-2.5
			C97.1,35.2,96,34,94.6,34z"/>
		<path fill="#FFFFFF" d="M84.7,23.5l3.9-3.9c1-1,1-2.6,0-3.5c-1-1-2.6-1-3.5,0L81.2,20c-1,1-1,2.6,0,3.5
			C82.2,24.5,83.8,24.5,84.7,23.5z"/>
		<path fill="#FFFFFF" d="M83.7,36.6c0-8.6-6.9-15.5-15.5-15.5c-5,0-9.5,2.4-12.3,6.1c-3.2-1.1-6.2-1-7.6-0.7
			c-3.4-3.3-8.9-5.8-14.6-5.8c-11.2,0-20.3,8.6-21.2,19.6c-3.7,2.1-6.1,6.1-6.1,10.6c0,6.8,5.5,12.2,12.2,12.2h47.2
			c6.9,0,12.6-5.6,12.6-12.6c0,0,0-0.9-0.2-2.2C81.5,45.6,83.7,41.3,83.7,36.6z M65.8,58.5H19.7c-4.6,0-7.9-3.3-7.9-7.6
			c0-3.5,2.2-6.6,5.7-7.6C17.9,26.8,32.4,25.9,34,25.9c4.8,0,9.6,2.4,12.6,5.8c6.2-2,14.7,2.7,13.7,12c2.4-1,4.8-0.9,5.5-0.9
			c3.5,0,7.7,3,7.7,8C73.5,55.1,70.1,58.5,65.8,58.5z M65.2,38c-1-3.9-2.8-6.6-5-8.4c1.9-2.2,4.8-3.6,7.9-3.6
			c5.8,0,10.5,4.7,10.5,10.5c0,2.6-0.9,5-2.5,6.8C72.5,37.5,65.2,38,65.2,38z"/>
	</g>
</svg>
