<svg xmlns="http://www.w3.org/2000/svg" width="60.61" height="57.54" viewBox="0 0 60.61 57.54"><defs><style>.cls-1{isolation:isolate;}.cls-2,.cls-3{mix-blend-mode:multiply;}.cls-3{fill:#fff;}</style></defs><title>weather-icon</title><g class="cls-1"><g id="Layer_1" data-name="Layer 1"><g class="cls-2"><path class="cls-3" d="M50.12,28.69a11.48,11.48,0,1,0-21.57-7.63,19.76,19.76,0,0,1,4.58.71A6.89,6.89,0,0,1,46.54,24a6.82,6.82,0,0,1-.89,3.39A16.73,16.73,0,0,1,50.12,28.69Z" transform="translate(-1 -1)"/><path class="cls-3" d="M39.66,10.18A2.3,2.3,0,0,0,42,7.89V3.3a2.3,2.3,0,1,0-4.59,0V7.89A2.3,2.3,0,0,0,39.66,10.18Z" transform="translate(-1 -1)"/><path class="cls-3" d="M28.35,12.31a2.3,2.3,0,0,0,3.72-2.7l-2.7-3.71a2.3,2.3,0,1,0-3.71,2.7Z" transform="translate(-1 -1)"/><path class="cls-3" d="M19.29,19.76l4.37,1.42a2.3,2.3,0,1,0,1.42-4.37l-4.37-1.42A2.3,2.3,0,1,0,19.29,19.76Z" transform="translate(-1 -1)"/><path class="cls-3" d="M60,28.16l-4.37-1.42a2.3,2.3,0,1,0-1.42,4.37l4.37,1.42A2.3,2.3,0,1,0,60,28.16Z" transform="translate(-1 -1)"/><path class="cls-3" d="M52.76,19.7a2.3,2.3,0,0,0,2.89,1.47L60,19.76a2.3,2.3,0,1,0-1.42-4.37l-4.37,1.42A2.3,2.3,0,0,0,52.76,19.7Z" transform="translate(-1 -1)"/><path class="cls-3" d="M47.75,12.82A2.3,2.3,0,0,0,51,12.31l2.7-3.72a2.3,2.3,0,0,0-3.72-2.7l-2.7,3.71A2.3,2.3,0,0,0,47.75,12.82Z" transform="translate(-1 -1)"/><path class="cls-3" d="M43.1,29.46a14.29,14.29,0,0,0-1.87.12A17.6,17.6,0,0,0,11,35.68a11.48,11.48,0,0,0,1.49,22.86H43.1A14.54,14.54,0,1,0,43.1,29.46Zm7,21.58a9.91,9.91,0,0,1-7,2.92H12.48a6.89,6.89,0,0,1,0-13.78l0.24,0h0.21a6.63,6.63,0,0,1,2.46.61h0a6.76,6.76,0,0,1,1.15.67,2.3,2.3,0,1,0,2.7-3.71,11.47,11.47,0,0,0-1.91-1.13h0a11.32,11.32,0,0,0-1.58-.59,13,13,0,0,1,12.06-8.12,12.91,12.91,0,0,1,6.06,1.5,13,13,0,0,1,2.48,1.7,14,14,0,0,0-1.85,1.15,14.42,14.42,0,0,0-2.09,1.87,2.3,2.3,0,0,0,3.38,3.11A10,10,0,0,1,37.21,36a9.62,9.62,0,0,1,1.68-1,10,10,0,0,1,1.9-.66h0A9.95,9.95,0,0,1,50.14,51Z" transform="translate(-1 -1)"/></g></g></g></svg>