<svg xmlns="http://www.w3.org/2000/svg" width="61.69" height="53.75" viewBox="0 0 61.69 53.75"><defs><style>.cls-1{isolation:isolate;}.cls-2,.cls-3{mix-blend-mode:multiply;}.cls-3{fill:#fff;}</style></defs><title>windy-icon</title><g class="cls-1"><g id="Layer_1" data-name="Layer 1"><g class="cls-2"><path class="cls-3" d="M9.88,26.35h18a12.5,12.5,0,1,0-12.5-12.5,2.5,2.5,0,0,0,5,0,7.5,7.5,0,1,1,7.5,7.5h-18A2.5,2.5,0,1,0,9.88,26.35Z" transform="translate(-1 -1.34)"/><path class="cls-3" d="M59.51,15.55A10.84,10.84,0,0,0,41,23.21a2.5,2.5,0,1,0,5,0A5.83,5.83,0,1,1,51.85,29H6.69a2.5,2.5,0,0,0,0,5H51.85A10.84,10.84,0,0,0,59.51,15.55Z" transform="translate(-1 -1.34)"/><path class="cls-3" d="M44.31,36.75H3.5a2.5,2.5,0,1,0,0,5H44.31a4.17,4.17,0,1,1-4.17,4.17,2.5,2.5,0,0,0-5,0A9.17,9.17,0,1,0,44.31,36.75Z" transform="translate(-1 -1.34)"/></g></g></g></svg>